<svg xmlns="http://www.w3.org/2000/svg" viewBox="0 0 7410 3900" aria-hidden="true">
  <defs>
    <linearGradient id="usRed" x1="0%" y1="0%" x2="0%" y2="100%">
      <stop offset="0%" stop-color="#e31d2c"/>
      <stop offset="100%" stop-color="#b22234"/>
    </linearGradient>
    <linearGradient id="usBlue" x1="0%" y1="0%" x2="100%" y2="100%">
      <stop offset="0%" stop-color="#3d5a98"/>
      <stop offset="100%" stop-color="#1f2f5c"/>
    </linearGradient>
  </defs>
  <path fill="url(#usRed)" d="M0 0h7410v3900H0"/>
  <path stroke="#fff" stroke-width="300" d="M0 450h7410M0 1050h7410M0 1650h7410M0 2250h7410M0 2850h7410"/>
  <path fill="url(#usBlue)" d="M0 0h2964v2100H0"/>
  <g fill="#fff">
    <circle cx="370" cy="260" r="90"/><circle cx="740" cy="260" r="90"/><circle cx="1110" cy="260" r="90"/><circle cx="1480" cy="260" r="90"/><circle cx="1850" cy="260" r="90"/><circle cx="2220" cy="260" r="90"/>
    <circle cx="555" cy="390" r="90"/><circle cx="925" cy="390" r="90"/><circle cx="1295" cy="390" r="90"/><circle cx="1665" cy="390" r="90"/><circle cx="2035" cy="390" r="90"/>
    <circle cx="370" cy="520" r="90"/><circle cx="740" cy="520" r="90"/><circle cx="1110" cy="520" r="90"/><circle cx="1480" cy="520" r="90"/><circle cx="1850" cy="520" r="90"/><circle cx="2220" cy="520" r="90"/>
    <circle cx="555" cy="650" r="90"/><circle cx="925" cy="650" r="90"/><circle cx="1295" cy="650" r="90"/><circle cx="1665" cy="650" r="90"/><circle cx="2035" cy="650" r="90"/>
    <circle cx="370" cy="780" r="90"/><circle cx="740" cy="780" r="90"/><circle cx="1110" cy="780" r="90"/><circle cx="1480" cy="780" r="90"/><circle cx="1850" cy="780" r="90"/><circle cx="2220" cy="780" r="90"/>
    <circle cx="555" cy="910" r="90"/><circle cx="925" cy="910" r="90"/><circle cx="1295" cy="910" r="90"/><circle cx="1665" cy="910" r="90"/><circle cx="2035" cy="910" r="90"/>
    <circle cx="370" cy="1040" r="90"/><circle cx="740" cy="1040" r="90"/><circle cx="1110" cy="1040" r="90"/><circle cx="1480" cy="1040" r="90"/><circle cx="1850" cy="1040" r="90"/><circle cx="2220" cy="1040" r="90"/>
    <circle cx="555" cy="1170" r="90"/><circle cx="925" cy="1170" r="90"/><circle cx="1295" cy="1170" r="90"/><circle cx="1665" cy="1170" r="90"/><circle cx="2035" cy="1170" r="90"/>
    <circle cx="370" cy="1300" r="90"/><circle cx="740" cy="1300" r="90"/><circle cx="1110" cy="1300" r="90"/><circle cx="1480" cy="1300" r="90"/><circle cx="1850" cy="1300" r="90"/><circle cx="2220" cy="1300" r="90"/>
    <circle cx="555" cy="1430" r="90"/><circle cx="925" cy="1430" r="90"/><circle cx="1295" cy="1430" r="90"/><circle cx="1665" cy="1430" r="90"/><circle cx="2035" cy="1430" r="90"/>
    <circle cx="370" cy="1560" r="90"/><circle cx="740" cy="1560" r="90"/><circle cx="1110" cy="1560" r="90"/><circle cx="1480" cy="1560" r="90"/><circle cx="1850" cy="1560" r="90"/><circle cx="2220" cy="1560" r="90"/>
    <circle cx="555" cy="1690" r="90"/><circle cx="925" cy="1690" r="90"/><circle cx="1295" cy="1690" r="90"/><circle cx="1665" cy="1690" r="90"/><circle cx="2035" cy="1690" r="90"/>
    <circle cx="370" cy="1820" r="90"/><circle cx="740" cy="1820" r="90"/><circle cx="1110" cy="1820" r="90"/><circle cx="1480" cy="1820" r="90"/><circle cx="1850" cy="1820" r="90"/><circle cx="2220" cy="1820" r="90"/>
  </g>
</svg>
